<svg xmlns="http://www.w3.org/2000/svg" xmlns:xlink="http://www.w3.org/1999/xlink" viewBox="0 0 129 38.24"><defs><style>.cls-1{fill:#fff;}.cls-2{fill:url(#linear-gradient);}.cls-3{fill:url(#linear-gradient-2);}.cls-4{fill:url(#linear-gradient-3);}</style><linearGradient id="linear-gradient" x1="-425.66" y1="-216.18" x2="-425.66" y2="-228.71" gradientTransform="matrix(0.96, -0.29, 0.29, 0.96, 489.9, 96.17)" gradientUnits="userSpaceOnUse"><stop offset="0.01" stop-color="#ff9100"/><stop offset="1" stop-color="#ffc700"/></linearGradient><linearGradient id="linear-gradient-2" x1="-420.99" y1="-212.82" x2="-420.99" y2="-223.96" xlink:href="#linear-gradient"/><linearGradient id="linear-gradient-3" x1="-424.95" y1="-202.21" x2="-424.95" y2="-216.18" xlink:href="#linear-gradient"/></defs><title>SIte-LogoEtequs</title><g id="Layer_2" data-name="Layer 2"><g id="Layer_1-2" data-name="Layer 1"><polygon class="cls-1" points="40.04 30.59 47.36 30.59 47.36 26.16 40.04 26.16 40.04 24.01 47.79 24.01 47.79 19.58 35.32 19.58 35.32 37.46 48.22 37.46 48.22 33.03 40.04 33.03 40.04 30.59"/><polygon class="cls-1" points="48.65 23.87 53.47 23.87 53.47 37.46 58.18 37.46 58.18 23.87 63 23.87 63 19.58 48.65 19.58 48.65 23.87"/><polygon class="cls-1" points="68.75 30.59 76.07 30.59 76.07 26.16 68.75 26.16 68.75 24.01 76.5 24.01 76.5 19.58 64.03 19.58 64.03 37.46 76.93 37.46 76.93 33.03 68.75 33.03 68.75 30.59"/><path class="cls-1" d="M95,33.42a5.67,5.67,0,0,0,1.15-1.49,7.15,7.15,0,0,0,.65-1.74A7.92,7.92,0,0,0,97,28.31a9,9,0,0,0-.75-3.7,8.84,8.84,0,0,0-2-2.89,9.36,9.36,0,0,0-3-1.89,10.59,10.59,0,0,0-7.42,0,9,9,0,0,0-3,1.88,8.85,8.85,0,0,0-2,2.9A9.2,9.2,0,0,0,78,28.31a9.53,9.53,0,0,0,.73,3.84,8.44,8.44,0,0,0,2,2.89,8.73,8.73,0,0,0,3.07,1.81,11.72,11.72,0,0,0,3.82.61H98.39V33.6H94.81A1.12,1.12,0,0,0,95,33.42Zm-3.2-3.26a4.77,4.77,0,0,1-2.49,2.51,4.71,4.71,0,0,1-3.61,0,4.86,4.86,0,0,1-1.48-1,4.59,4.59,0,0,1-1-1.5,4.74,4.74,0,0,1-.37-1.85,4.79,4.79,0,0,1,.37-1.86,4.69,4.69,0,0,1,1-1.5,5,5,0,0,1,1.48-1,4.53,4.53,0,0,1,1.81-.36,4.49,4.49,0,0,1,1.8.36,4.77,4.77,0,0,1,2.49,2.51,4.78,4.78,0,0,1,.36,1.86A4.73,4.73,0,0,1,91.81,30.16Z"/><path class="cls-1" d="M109.75,30.31a3.78,3.78,0,0,1-.22,1.28,3,3,0,0,1-.61,1,2.67,2.67,0,0,1-.9.65,3.06,3.06,0,0,1-2.34,0,2.71,2.71,0,0,1-.91-.65,3,3,0,0,1-.61-1,3.78,3.78,0,0,1-.22-1.28V19.58H99.23V30.45a8.72,8.72,0,0,0,.48,2.94,6.79,6.79,0,0,0,1.46,2.37,6.55,6.55,0,0,0,2.41,1.57,9.83,9.83,0,0,0,6.54,0,6.59,6.59,0,0,0,2.4-1.57A6.79,6.79,0,0,0,114,33.39a8.72,8.72,0,0,0,.48-2.94V19.58h-4.71Z"/><path class="cls-1" d="M126.56,27.64a8.38,8.38,0,0,0-2-.86c-.66-.19-1.28-.38-1.85-.57a4.7,4.7,0,0,1-1.31-.62.84.84,0,0,1-.37-.77.86.86,0,0,1,.15-.52,1.2,1.2,0,0,1,.45-.38,2.66,2.66,0,0,1,.68-.26,3.49,3.49,0,0,1,2,.17,2.16,2.16,0,0,1,1,.68l.36.46L129,21.38l-.37-.34a6.92,6.92,0,0,0-2.6-1.46,9.66,9.66,0,0,0-5.46-.06,6.73,6.73,0,0,0-2.22,1.12,5.72,5.72,0,0,0-1.57,1.88,5.62,5.62,0,0,0-.59,2.62,4.4,4.4,0,0,0,.67,2.54,5,5,0,0,0,1.62,1.53,8.71,8.71,0,0,0,2,.88c.67.21,1.3.41,1.88.62a4.79,4.79,0,0,1,1.34.68.92.92,0,0,1,.38.8.83.83,0,0,1-.14.51,1.38,1.38,0,0,1-.43.4,2.55,2.55,0,0,1-.7.27,3.53,3.53,0,0,1-2.39-.28,3.24,3.24,0,0,1-1.26-1l-.36-.48-3.39,3.72.37.33a8.16,8.16,0,0,0,2.79,1.73,9.62,9.62,0,0,0,3.22.53,9.88,9.88,0,0,0,2.63-.35,6.72,6.72,0,0,0,2.24-1.11,5.53,5.53,0,0,0,1.56-1.92,5.93,5.93,0,0,0,.58-2.67,4.76,4.76,0,0,0-.66-2.64A5.07,5.07,0,0,0,126.56,27.64Z"/><polygon class="cls-1" points="13.72 24.53 7.38 24.53 7.38 18.18 0.03 18.18 0.03 25.52 6.38 25.52 6.38 30.89 0 30.89 0 38.24 7.35 38.24 7.35 31.87 12.75 31.87 12.75 38.24 20.1 38.24 20.1 30.9 13.72 30.9 13.72 24.53"/><path class="cls-2" d="M18.73,5.65a13.72,13.72,0,0,1,6.06-1.49A16,16,0,0,1,24.7,0a2,2,0,0,0-1.86,1.77,1,1,0,0,1-.88,1A.89.89,0,0,1,21,2.19c-.43.13-.86.3-1.28.47a.74.74,0,0,1,0,.14.9.9,0,0,1-.8,1,.88.88,0,0,1-.84-.4c-.34.19-.68.39-1,.6a1,1,0,0,1,.15.39.91.91,0,0,1-.81,1,.88.88,0,0,1-.78-.32c-.28.23-.56.48-.83.73a.92.92,0,0,1,.22.48.9.9,0,0,1-.8,1,.85.85,0,0,1-.64-.18c-.23.28-.45.57-.66.86a.9.9,0,0,1-.48,1.59A.9.9,0,0,1,12,9.46c-.16.29-.32.59-.46.9a.89.89,0,0,1,.57.73.91.91,0,0,1-.8,1,1,1,0,0,1-.45-.08c-.1.29-.2.59-.28.9a.9.9,0,0,1-.12,1.77.76.76,0,0,1-.26,0q-.08.51-.12,1a.89.89,0,0,1,.8.78.92.92,0,0,1-.31.79,17.12,17.12,0,0,1,1.83-.4A12,12,0,0,1,18.73,5.65Z"/><path class="cls-3" d="M24.62,5.48a11.81,11.81,0,0,0-5.2,1.28A10.22,10.22,0,0,0,14,16.37a13.14,13.14,0,0,1,7.36,1,4.66,4.66,0,0,1,1.71-4,3.51,3.51,0,0,1,2.05-1h.16l.22,0A4.69,4.69,0,0,1,29.61,14,23.21,23.21,0,0,0,33,14c.8-.17,1.54-2.43,1.06-3-.26-.33-6-2.9-6.05-4.84a6,6,0,0,0-1.86-.59"/><path class="cls-4" d="M14.77,19.71a10.13,10.13,0,0,0,8.37,6.13,17.19,17.19,0,0,0,1.93,0,19.53,19.53,0,0,1-6,.33L19,27.73a20.68,20.68,0,0,0,4.45,0,20.93,20.93,0,0,0,5.4-1.33c.68-.28,1.81-.91,1.72-1.19-.31-1-2.23-2.72-3.16-3.43a1,1,0,0,0-.83-.1,4,4,0,0,1-.69,0,4.68,4.68,0,0,1-4.48-4.16s0-.09,0-.13a13.14,13.14,0,0,0-7.36-1A9.84,9.84,0,0,0,14.77,19.71Z"/></g></g></svg>