<svg xmlns="http://www.w3.org/2000/svg" xmlns:xlink="http://www.w3.org/1999/xlink" viewBox="0 0 30.87 30.87"><defs><style>.cls-1{fill:url(#linear-gradient);}</style><linearGradient id="linear-gradient" x1="15.43" y1="30.87" x2="15.43" gradientUnits="userSpaceOnUse"><stop offset="0" stop-color="#008e8f"/><stop offset="1" stop-color="#812ba0"/></linearGradient></defs><title>FB-v02Etequs</title><g id="Layer_2" data-name="Layer 2"><g id="Layer_1-2" data-name="Layer 1"><path class="cls-1" d="M29.16,1.71A5.56,5.56,0,0,1,30.87,5.8V25.07a5.57,5.57,0,0,1-1.71,4.11,5.63,5.63,0,0,1-4.09,1.69H21.3v-12h4l.63-4.67H21.3v-3a2.87,2.87,0,0,1,.43-1.64c.28-.41.9-.61,1.86-.61l2.46,0V4.85c-.21,0-.65-.06-1.32-.1s-1.42-.07-2.27-.07a6,6,0,0,0-4.3,1.58,6,6,0,0,0-1.67,4.57v3.41h-4v4.67h4v12H5.8a5.6,5.6,0,0,1-4.11-1.69A5.59,5.59,0,0,1,0,25.07V5.8A5.58,5.58,0,0,1,1.69,1.71,5.54,5.54,0,0,1,5.8,0H25.07A5.58,5.58,0,0,1,29.16,1.71Z"/></g></g></svg>