<svg xmlns="http://www.w3.org/2000/svg" xmlns:xlink="http://www.w3.org/1999/xlink" viewBox="0 0 17.37 33.43"><defs><style>.cls-1{fill:url(#linear-gradient);}</style><linearGradient id="linear-gradient" x1="8.68" y1="33.43" x2="8.68" gradientUnits="userSpaceOnUse"><stop offset="0" stop-color="#008e8f"/><stop offset="1" stop-color="#812ba0"/></linearGradient></defs><title>FBEtequs</title><g id="Layer_2" data-name="Layer 2"><g id="Layer_1-2" data-name="Layer 1"><path class="cls-1" d="M17.37.25v5.3H14.2q-1.83,0-2.37.81a3.67,3.67,0,0,0-.54,2.08v3.79h5.87l-.78,5.95H11.29V33.43H5.13V18.18H0V12.23H5.13V7.88A9.17,9.17,0,0,1,5.7,4.5,6.9,6.9,0,0,1,7.26,2,6.29,6.29,0,0,1,9.67.53,8.9,8.9,0,0,1,12.8,0q1.62,0,2.88.09C16.52.15,17.09.2,17.37.25Z"/></g></g></svg>