<svg xmlns="http://www.w3.org/2000/svg" xmlns:xlink="http://www.w3.org/1999/xlink" viewBox="0 0 30.87 30.87"><defs><style>.cls-1{fill:url(#linear-gradient);}</style><linearGradient id="linear-gradient" gradientUnits="userSpaceOnUse"><stop offset="0" stop-color="#504291"/><stop offset="1" stop-color="#7B369D"/></linearGradient></defs><title>InstaEtequs</title><g id="Layer_2" data-name="Layer 2"><g id="Layer_1-2" data-name="Layer 1"><path class="cls-1" d="M30.87,15.43c0,1.08,0,2.15,0,3.2s0,2.11-.09,3.17a14.3,14.3,0,0,1-.61,3.49,7.13,7.13,0,0,1-1.88,3,7.56,7.56,0,0,1-3,1.89,12.55,12.55,0,0,1-3.48.6c-1.06.07-2.12.11-3.18.11H12.23c-1.05,0-2.11,0-3.16-.11a12.76,12.76,0,0,1-3.5-.6,7.23,7.23,0,0,1-3-1.89,7.29,7.29,0,0,1-1.9-3A12.62,12.62,0,0,1,.11,21.8C0,20.74,0,19.69,0,18.63V12.25c0-1.06,0-2.13.11-3.18A12.55,12.55,0,0,1,.7,5.59a7.59,7.59,0,0,1,1.9-3,7.1,7.1,0,0,1,3-1.88A14.47,14.47,0,0,1,9.07.11c1,0,2.11-.08,3.16-.09l3.2,0,3.19,0q1.59,0,3.18.09a14.22,14.22,0,0,1,3.48.61,7.42,7.42,0,0,1,3,1.88,7.42,7.42,0,0,1,1.88,3,14.22,14.22,0,0,1,.61,3.48c0,1,.08,2.12.09,3.18S30.87,14.38,30.87,15.43ZM13.36,2.78c-.84,0-1.7,0-2.57,0S9.09,2.88,8.3,3a7.84,7.84,0,0,0-2,.46,6.47,6.47,0,0,0-1,.47,4.25,4.25,0,0,0-.81.69,5.51,5.51,0,0,0-.69.83,5.76,5.76,0,0,0-.47.93A7.84,7.84,0,0,0,3,8.3c-.09.79-.15,1.63-.17,2.49s0,1.73,0,2.57,0,1.51,0,2.07,0,1.26,0,2.08,0,1.7,0,2.56.08,1.7.17,2.5a8,8,0,0,0,.46,2,6.47,6.47,0,0,0,.47.95,4.25,4.25,0,0,0,.69.81,3.85,3.85,0,0,0,.81.68,5.62,5.62,0,0,0,1,.48,7.46,7.46,0,0,0,2,.45,24.49,24.49,0,0,0,2.49.18l2.57,0,2.07,0,2.08,0,2.56,0a24.7,24.7,0,0,0,2.5-.18,7.56,7.56,0,0,0,2-.45,5.06,5.06,0,0,0,.93-.48,4.87,4.87,0,0,0,.83-.68,3.85,3.85,0,0,0,.68-.81,5.62,5.62,0,0,0,.48-.95,7.56,7.56,0,0,0,.45-2c.07-.8.13-1.63.16-2.5s0-1.72,0-2.56V13.36c0-.84,0-1.7,0-2.57S28,9.09,27.91,8.3a7.46,7.46,0,0,0-.45-2A5.06,5.06,0,0,0,27,5.4a4.87,4.87,0,0,0-.68-.83,5.51,5.51,0,0,0-.83-.69,5.76,5.76,0,0,0-.93-.47,8,8,0,0,0-2-.46c-.8-.07-1.63-.12-2.5-.16s-1.72,0-2.56,0H13.36Zm10,12.65a7.64,7.64,0,0,1-.63,3.1A7.56,7.56,0,0,1,21,21a8.15,8.15,0,0,1-2.51,1.71A7.87,7.87,0,0,1,9.83,21a7.87,7.87,0,0,1,0-11.21,7.41,7.41,0,0,1,2.51-1.67,7.8,7.8,0,0,1,6.19,0A7.41,7.41,0,0,1,21,9.83a7.56,7.56,0,0,1,1.67,2.51A7.62,7.62,0,0,1,23.34,15.43Zm-2.77,0a5,5,0,0,0-1.52-3.62,4.91,4.91,0,0,0-3.62-1.51,4.92,4.92,0,0,0-3.64,1.51,5.17,5.17,0,0,0,0,7.26,5,5,0,0,0,3.64,1.5,5.16,5.16,0,0,0,5.14-5.14ZM25,8.51A1.83,1.83,0,0,1,23.66,9a1.81,1.81,0,0,1-1.83-1.83,1.83,1.83,0,0,1,.53-1.32,1.74,1.74,0,0,1,1.3-.55,1.86,1.86,0,0,1,1.86,1.87A1.75,1.75,0,0,1,25,8.51Z"/></g></g></svg>