<svg xmlns="http://www.w3.org/2000/svg" xmlns:xlink="http://www.w3.org/1999/xlink" viewBox="0 0 30.87 30.87"><defs><style>.cls-1{fill:url(#linear-gradient);}</style><linearGradient id="linear-gradient" gradientUnits="userSpaceOnUse"><stop offset="0" stop-color="#2D8586"/><stop offset="1" stop-color="#2D708A"/></linearGradient></defs><title>TWEtequs</title><g id="Layer_2" data-name="Layer 2"><g id="Layer_1-2" data-name="Layer 1"><path class="cls-1" d="M30.87,5.8V25.07a5.57,5.57,0,0,1-1.71,4.11,5.63,5.63,0,0,1-4.09,1.69H5.8a5.6,5.6,0,0,1-4.11-1.69A5.59,5.59,0,0,1,0,25.07V5.8A5.58,5.58,0,0,1,1.69,1.71,5.54,5.54,0,0,1,5.8,0H25.07a5.58,5.58,0,0,1,4.09,1.71A5.56,5.56,0,0,1,30.87,5.8Zm-6.33,4.32a7.14,7.14,0,0,1-1.27.25,4.11,4.11,0,0,0,1.16-1A3.81,3.81,0,0,0,25.14,8a7.79,7.79,0,0,1-1.29.65A7.5,7.5,0,0,1,22.46,9a4,4,0,0,0-1.37-.95,4.18,4.18,0,0,0-1.72-.36A4.23,4.23,0,0,0,15.15,12a2.81,2.81,0,0,0,0,.5c0,.16,0,.31.07.45a11.64,11.64,0,0,1-4.89-1.32A12.07,12.07,0,0,1,6.54,8.47a7.25,7.25,0,0,0-.41,1A4.13,4.13,0,0,0,6,10.62a4.35,4.35,0,0,0,.47,2A3.81,3.81,0,0,0,7.8,14.13a3.6,3.6,0,0,1-1-.14,4.55,4.55,0,0,1-1-.38v0a4,4,0,0,0,1,2.71,4.25,4.25,0,0,0,2.45,1.44,4.54,4.54,0,0,1-.5.12,2.19,2.19,0,0,1-.52.05l-.37,0-.41-.07A4.29,4.29,0,0,0,9,20a4,4,0,0,0,2.44.86A8.53,8.53,0,0,1,9,22.13a8.21,8.21,0,0,1-2.81.48l-.51,0-.51-.05a12.18,12.18,0,0,0,3,1.4,11.8,11.8,0,0,0,3.43.49,11.66,11.66,0,0,0,5.17-1.09,11.88,11.88,0,0,0,3.74-2.81,12.19,12.19,0,0,0,3.11-8.12v-.25a1.41,1.41,0,0,0,0-.28,6.77,6.77,0,0,0,1.16-1,9.81,9.81,0,0,0,.95-1.2A8,8,0,0,1,24.54,10.12Z"/></g></g></svg>